<?xml version="1.0" encoding="UTF-8"?>
<!DOCTYPE svg PUBLIC "-//W3C//DTD SVG 1.1//EN" "http://www.w3.org/Graphics/SVG/1.1/DTD/svg11.dtd">
<!-- Creator: CorelDRAW X8 -->
<svg xmlns="http://www.w3.org/2000/svg" xml:space="preserve" width="191.612mm" height="160.676mm" version="1.1" style="shape-rendering:geometricPrecision; text-rendering:geometricPrecision; image-rendering:optimizeQuality; fill-rule:evenodd; clip-rule:evenodd"
viewBox="0 0 15343 12866"
 xmlns:xlink="http://www.w3.org/1999/xlink">
 <defs>
  <style type="text/css">
   <![CDATA[
    .fil1 {fill:#0183CC}
    .fil3 {fill:#020202}
    .fil4 {fill:#0598D8}
    .fil7 {fill:#26ACE7}
    .fil6 {fill:#55C4EA}
    .fil2 {fill:#EECB01}
    .fil0 {fill:#F2A201}
    .fil5 {fill:#FEFEFE}
   ]]>
  </style>
 </defs>
 <g id="Layer_x0020_1">
  <metadata id="CorelCorpID_0Corel-Layer"/>
  <g id="_2878958727856">
   <path class="fil0" d="M4573 6150c154,338 852,890 1238,1106 459,257 1200,509 1866,472 141,-371 422,-953 336,-1459 -674,-77 -1106,-322 -1595,-722 -152,-124 -249,-276 -376,-388 -374,21 -1329,689 -1469,991z"/>
   <path class="fil0" d="M3929 2939c-114,706 -176,982 -28,1737 75,386 360,1109 587,1356 64,-24 255,-231 325,-293 349,-310 692,-505 1144,-688 -119,-259 -265,-407 -380,-755 -193,-581 -162,-901 -150,-1483 -647,-44 -925,-43 -1498,126z"/>
   <path class="fil0" d="M7798 7726c983,67 1988,-523 2641,-1133 151,-141 97,-271 67,-504 -26,-200 -70,-334 -107,-516 -163,32 -368,315 -968,543 -489,185 -739,136 -1287,185 -54,294 -47,489 -122,785 -58,229 -178,456 -224,640z"/>
   <path class="fil1" d="M9770 5191c-7,-6 -34,-26 -39,-30 -120,-100 -168,-73 -345,-63 -140,8 -85,36 -135,-50 58,-50 -36,-16 96,-43 24,-4 97,-1 126,-1l-163 -200c-32,-31 -16,6 -43,-47 -29,-54 -20,-97 -22,-161 61,-47 88,-55 136,-31l-738 -83 -101 -183c-5,-6 -23,-21 -28,-27 -34,-39 -11,57 -40,-63 36,36 202,151 241,173 5,2 12,6 18,8l77 35c8,3 34,15 43,18 45,15 110,51 155,-17 -281,-103 -535,-252 -609,-578 -126,-564 335,-654 417,-749 -39,-33 -7,-14 -72,-47 -9,-4 -72,-29 -80,-31 -347,-109 -782,41 -1027,318 -428,483 -343,1644 813,1986 402,119 1145,68 1320,-134z"/>
   <path class="fil2" d="M3971 2801c154,-12 289,-66 431,-90 345,-60 725,-24 1075,-4 138,-705 536,-1258 1054,-1717 -5,-6 -13,-23 -16,-18 0,0 -27,-47 -182,-114 -78,-34 -151,-59 -224,-85 -581,-208 -647,-153 -1227,432 -334,337 -806,1053 -911,1596z"/>
   <path class="fil3" d="M645 11858c104,130 435,945 566,1008 157,-114 431,-878 593,-1038 113,220 118,770 255,933 3,2 388,139 353,-121l-204 -934c-35,-160 -165,-926 -262,-997 -126,64 -285,482 -378,655 -97,179 -242,536 -357,661 -191,-237 -570,-1275 -728,-1315 -70,89 -516,1931 -481,2074l362 -5 281 -921z"/>
   <path class="fil3" d="M7516 12753c86,65 304,40 337,9 67,-64 29,-1011 28,-1135l959 933c85,85 208,274 337,287 69,-119 31,-1425 34,-1755l-17 -185c-2,-5 -8,-9 -9,-20 -7,-65 -294,-55 -338,-13 -73,71 -15,830 -36,1095 -212,-144 -866,-937 -1103,-1079 -108,62 -216,156 -221,314 -8,257 -32,1457 29,1549z"/>
   <path class="fil3" d="M12036 11232c822,-311 1154,942 409,1179 -769,244 -1162,-895 -409,-1179zm-782 765c84,483 558,901 1161,808 1309,-203 995,-2206 -340,-1980 -501,85 -927,566 -821,1172z"/>
   <path class="fil3" d="M3142 11997c-217,-893 1040,-1101 1193,-331 76,381 -149,677 -438,755 -360,97 -690,-154 -755,-424zm1569 85c177,-602 -268,-1121 -707,-1236 -600,-159 -1124,241 -1245,692 -349,1306 1579,1809 1952,544z"/>
   <path class="fil3" d="M5859 11240c379,-179 716,91 811,354 135,378 -103,714 -363,809 -365,134 -698,-96 -793,-358 -125,-343 7,-644 345,-805zm-765 757c77,488 575,900 1161,808 499,-79 939,-564 829,-1173 -225,-1249 -2205,-996 -1990,365z"/>
   <path class="fil3" d="M13649 12748c60,55 47,37 160,42 398,16 112,-300 211,-1174l963 960c155,151 321,427 354,156 3,-18 1,-90 1,-113 -3,-347 23,-1619 -21,-1764 -94,-16 -285,-35 -340,25 -61,83 -28,902 -24,1078 -160,-86 -964,-987 -1115,-1067 -123,77 -212,128 -216,313 -3,177 2,361 2,539 0,179 -37,913 25,1005z"/>
   <path class="fil4" d="M7247 1178c-38,79 -41,92 9,28l106 136c-19,12 -129,70 -130,71 -37,31 -33,36 -32,104 82,28 192,74 269,92 -93,116 31,34 -153,78 -80,19 -54,-20 -119,49 -88,-58 21,-15 15,29 -9,68 -45,78 -78,106 419,-127 607,-238 1139,-202 151,10 367,55 541,128 188,78 294,187 447,259 31,-120 -4,1 38,-87 0,0 -139,-31 -87,-130 59,-111 117,-27 235,3 54,14 52,-32 13,14 -26,-202 -99,149 -113,-198 64,-49 -10,-24 87,-35 76,-9 39,-23 117,38 48,37 17,10 28,28 -85,-63 18,-17 -91,-88 0,-226 -10,-27 56,-97 -226,-244 -528,-474 -996,-539 -389,-54 -1079,22 -1301,213z"/>
   <path class="fil2" d="M5745 568c171,44 369,90 527,153 186,76 321,215 514,100 681,-409 1494,-610 2303,-398 214,55 333,103 521,179 243,99 309,180 460,229 -1051,-892 -2650,-1067 -3904,-520l-331 151c-104,69 -53,31 -90,106z"/>
   <path class="fil1" d="M6984 2507c216,-1 52,-68 229,-36 24,77 -13,240 203,328 133,54 131,-33 242,-33 -5,4 -45,-32 -9,17l35 36c288,-93 609,-281 1095,-140 479,139 696,487 791,531 -20,-520 -447,-974 -991,-1124 -529,-145 -1382,48 -1595,421z"/>
   <path class="fil0" d="M11435 4816c152,-583 189,-1541 -55,-2067 -74,81 31,510 -57,1079 -53,343 -147,605 -301,893 -245,457 -373,498 -505,680 -68,95 87,536 116,960 109,-66 410,-561 475,-683 144,-270 235,-508 327,-862z"/>
   <path class="fil3" d="M11005 11222c59,-70 168,-255 136,-368 -222,-31 -596,-9 -834,-9 -141,0 -283,0 -424,0 -328,-1 -393,-52 -392,192 1,306 146,159 592,191 5,250 -50,1408 32,1525 27,28 316,85 350,-32 29,-99 14,-225 14,-329l0 -1168 526 -2z"/>
   <path class="fil5" d="M12036 11232c-753,284 -360,1423 409,1179 745,-237 413,-1490 -409,-1179z"/>
   <path class="fil5" d="M3142 11997c65,270 395,521 755,424 289,-78 514,-374 438,-755 -153,-770 -1410,-562 -1193,331z"/>
   <path class="fil5" d="M5859 11240c-338,161 -470,462 -345,805 95,262 428,492 793,358 260,-95 498,-431 363,-809 -95,-263 -432,-533 -811,-354z"/>
   <path class="fil6" d="M7018 3905c-51,55 -37,116 -41,215l-47 -81c-3,-6 -9,-41 -13,-50 -75,39 -67,26 -178,22 -27,-91 -74,-166 -161,-196 -45,78 -25,176 -48,111 -2,-4 -7,14 -12,20 -24,-208 -25,-408 11,-602l-55 143c-151,895 379,2051 1565,2274 580,109 892,-78 1151,-103 -306,-58 -564,-6 -893,-98 -781,-216 -1295,-725 -1279,-1655z"/>
   <path class="fil1" d="M9261 2056c23,82 301,256 451,732 134,428 72,705 -25,1101 329,-161 492,-722 418,-1235 -72,-498 -296,-844 -561,-1150 -66,70 -56,-129 -56,97 109,71 6,25 91,88 -11,-18 20,9 -28,-28 -78,-61 -41,-47 -117,-38 -97,11 -23,-14 -87,35 14,347 87,-4 113,198 39,-46 41,0 -13,-14 -118,-30 -176,-114 -235,-3 -52,99 87,130 87,130 -42,88 -7,-33 -38,87z"/>
   <path class="fil4" d="M9008 4426c-45,68 -110,32 -155,17 -9,-3 -35,-15 -43,-18l-77 -35c-6,-2 -13,-6 -18,-8 -39,-22 -205,-137 -241,-173 29,120 6,24 40,63 5,6 23,21 28,27l101 183 738 83c-48,-24 -75,-16 -136,31 2,64 -7,107 22,161 27,53 11,16 43,47l163 200c-29,0 -102,-3 -126,1 -132,27 -38,-7 -96,43 50,86 -5,58 135,50 177,-10 225,-37 345,63 5,4 32,24 39,30 297,-92 571,-404 713,-604l-143 6c-5,0 -14,0 -19,-1l-54 -13c-63,-41 -46,13 -56,-237l-190 -85c18,-89 -4,-43 56,-113 -26,-40 55,-43 -61,-28 -382,236 -379,358 -1008,310z"/>
   <path class="fil6" d="M10439 3295c64,58 7,226 8,313 78,-65 48,-81 86,-156l49 221 72 -106c8,136 35,189 42,326 38,-37 26,-11 54,-75 26,-58 20,-32 12,-88l13 107c6,-6 12,-25 14,-21l49 -161c84,-741 -157,-1482 -653,-2016 -91,-99 -422,-394 -557,-433 73,154 357,304 609,832 204,429 206,723 202,1257z"/>
   <path class="fil6" d="M7067 1901c-92,15 -237,-6 -293,-46 159,-152 138,22 141,-166 -80,3 -50,14 -79,32 -7,4 -27,21 -31,25l-29 27c-34,-28 -70,-54 -113,-87l28 -114c-88,47 -75,39 -142,115 -460,515 -658,1206 -596,1919 17,201 109,610 202,732 59,-139 -415,-1543 777,-2324l135 -113z"/>
   <path class="fil4" d="M6984 2507c-128,38 -421,499 -418,717l43 155c48,50 119,58 177,75 206,62 166,186 255,244 87,-216 108,-316 239,-492 68,-92 128,-153 185,-209 81,-80 150,-112 219,-178l-35 -36c-36,-49 4,-13 9,-17 -111,0 -109,87 -242,33 -216,-88 -179,-251 -203,-328 -177,-32 -13,35 -229,36z"/>
   <path class="fil7" d="M10016 4116c116,-15 35,-12 61,28 -60,70 -38,24 -56,113l190 85c10,250 -7,196 56,237l54 13c5,1 14,1 19,1l143 -6c113,-150 321,-509 292,-750l-13 -107c8,56 14,30 -12,88 -28,64 -16,38 -54,75 -7,-137 -34,-190 -42,-326l-72 106 -49 -221c-38,75 -8,91 -86,156 -1,-87 56,-255 -8,-313 -55,172 -43,268 -157,457 -39,64 -68,117 -124,187 -53,66 -92,85 -142,177z"/>
   <path class="fil7" d="M6691 1572l-28 114c43,33 79,59 113,87l29 -27c4,-4 24,-21 31,-25 29,-18 -1,-29 79,-32 -3,188 18,14 -141,166 56,40 201,61 293,46 60,3 22,26 67,-30 33,-28 69,-38 78,-106 6,-44 -103,-87 -15,-29 65,-69 39,-30 119,-49 184,-44 60,38 153,-78 -77,-18 -187,-64 -269,-92 -1,-68 -5,-73 32,-104 1,-1 111,-59 130,-71l-106 -136c-50,64 -47,51 -9,-28 -135,34 -522,271 -556,394z"/>
   <path class="fil7" d="M6529 3344c-36,194 -35,394 -11,602 5,-6 10,-24 12,-20 23,65 3,-33 48,-111 87,30 134,105 161,196 111,4 103,17 178,-22 4,9 10,44 13,50l47 81c4,-99 -10,-160 41,-215l23 -207c-89,-58 -49,-182 -255,-244 -58,-17 -129,-25 -177,-75l-43 -155c-70,27 -49,53 -37,120z"/>
  </g>
 </g>
</svg>
